M48
;DRILL file {KiCad 5.0.2+dfsg1-1~bpo9+1} date Sun Oct 31 12:26:42 2021
;FORMAT={-:-/ absolute / inch / decimal}
FMAT,2
INCH,TZ
T1C0.0315
T2C0.0394
T3C0.0469
T4C0.1201
%
G90
G05
T1
X4.7933Y-5.2854
X4.7933Y-5.3839
X4.8409Y-4.6063
X4.8409Y-4.9063
X4.9409Y-4.6063
X4.9409Y-4.9063
X4.5079Y-4.6047
X4.5079Y-4.7047
X4.5866Y-4.0504
X4.5866Y-4.3504
X4.6866Y-4.0504
X4.6866Y-4.3504
X4.7866Y-4.0504
X4.7866Y-4.3504
X4.8866Y-4.0504
X4.8866Y-4.3504
X4.5276Y-5.2839
X4.5276Y-5.3839
X4.6457Y-4.6047
X4.6457Y-4.7047
T2
X4.2189Y-4.3982
X4.2189Y-4.5073
X4.2189Y-4.6163
X4.2189Y-4.7254
X4.2189Y-4.8344
X4.2189Y-4.9435
X4.2189Y-5.0526
X4.3307Y-4.3437
X4.3307Y-4.4528
X4.3307Y-4.5618
X4.3307Y-4.6709
X4.3307Y-4.7799
X4.3307Y-4.889
X4.3307Y-4.998
X4.3307Y-5.1071
T3
X5.1598Y-4.5541
X5.1598Y-4.6443
X5.1598Y-4.7344
X5.1598Y-4.8246
X5.1598Y-4.9148
X5.2598Y-4.5093
X5.2598Y-4.5994
X5.2598Y-4.6896
X5.2598Y-4.7797
X5.2598Y-4.8699
X5.3598Y-4.5541
X5.3598Y-4.6443
X5.3598Y-4.7343
X5.3598Y-4.8246
X5.3598Y-4.9148
T4
X5.2598Y-4.2325
X5.2598Y-5.2167
X4.2748Y-4.0699
X4.2748Y-5.3809
T0
M30
